<svg xmlns="http://www.w3.org/2000/svg" xmlns:xlink="http://www.w3.org/1999/xlink" width="70" height="70" viewBox="0 0 70 70">
  <defs>
    <clipPath id="clip-path">
      <rect id="Rectangle_110" data-name="Rectangle 110" width="70" height="70" transform="translate(475 723)" fill="#ff4367"/>
    </clipPath>
  </defs>
  <g id="Mask_Group_28" data-name="Mask Group 28" transform="translate(-475 -723)" clip-path="url(#clip-path)">
    <g id="design" transform="translate(475 723)">
      <path id="Path_136" data-name="Path 136" d="M43.2,47.3a1.367,1.367,0,1,0,1.367,1.367A1.368,1.368,0,0,0,43.2,47.3Zm0,0" fill="#ff4367"/>
      <path id="Path_137" data-name="Path 137" d="M63.164,0H6.836A6.844,6.844,0,0,0,0,6.836V48.672a6.844,6.844,0,0,0,6.836,6.836H28.164V61.8H26.8a6.838,6.838,0,0,0-6.836,6.836A1.367,1.367,0,0,0,21.328,70H48.672a1.367,1.367,0,0,0,1.367-1.367A6.844,6.844,0,0,0,43.2,61.8H41.836V55.508H63.164A6.844,6.844,0,0,0,70,48.672V6.836A6.844,6.844,0,0,0,63.164,0ZM6.836,2.734H63.164a4.106,4.106,0,0,1,4.1,4.1v35H60.977V10.391a1.367,1.367,0,0,0-1.367-1.367H48.672A1.367,1.367,0,0,0,47.3,10.391V41.836H40.461c-.014-1.414-.051-2.808-.11-4.16a87.939,87.939,0,0,0-1.068-10.939A6.837,6.837,0,0,0,41.15,17.82L36.411,9.612a1.367,1.367,0,0,0-2.368,0L29.3,17.82a6.835,6.835,0,0,0,1.5,8.628,86.788,86.788,0,0,0-1.152,11.225c-.061,1.367-.1,2.762-.115,4.163H22.7V21.328a1.36,1.36,0,0,0-.135-.59c0-.007-.006-.014-.009-.021L17.082,9.779a1.367,1.367,0,0,0-2.446,0L9.168,20.717c0,.007-.005.014-.009.021a1.359,1.359,0,0,0-.136.59V41.836H2.734v-35a4.106,4.106,0,0,1,4.1-4.1Zm43.2,39.1V11.758h8.2v2.734H56.875a1.367,1.367,0,0,0,0,2.734h1.367v4.1H56.875a1.367,1.367,0,0,0,0,2.734h1.367v4.1H56.875a1.367,1.367,0,0,0,0,2.734h1.367v5.469H56.875a1.367,1.367,0,0,0,0,2.734h1.367v2.734ZM35.227,28.07a6.846,6.846,0,0,0,1.475-.164c.254,1.626.626,4.5.847,8.462H32.46c.231-3.955.622-6.878.891-8.559a6.844,6.844,0,0,0,1.876.261Zm0-2.734a4.107,4.107,0,0,1-3.556-6.148l3.556-6.157,3.554,6.156a4.1,4.1,0,0,1-3.554,6.149ZM32.334,39.1h5.335c.029.9.049,1.812.058,2.734H32.273c.01-.916.031-1.83.061-2.734ZM17.227,41.836V22.7h2.734V41.836Zm-5.469,0V22.7h2.734V41.836ZM12.6,19.961l3.257-6.513,3.257,6.513Zm34.467,47.3H22.928A4.11,4.11,0,0,1,26.8,64.531H43.2a4.108,4.108,0,0,1,3.867,2.734ZM39.1,61.8H30.9V55.508h8.2Zm24.063-9.023H6.836a4.106,4.106,0,0,1-4.1-4.1v-4.1H67.266v4.1A4.106,4.106,0,0,1,63.164,52.773Zm0,0" fill="#ff4367"/>
      <path id="Path_138" data-name="Path 138" d="M37.734,47.3h-8.2a1.367,1.367,0,0,0,0,2.734h8.2a1.367,1.367,0,0,0,0-2.734Zm0,0" fill="#ff4367"/>
    </g>
  </g>
</svg>
