<svg xmlns="http://www.w3.org/2000/svg" xmlns:xlink="http://www.w3.org/1999/xlink" width="70" height="70" viewBox="0 0 70 70">
  <defs>
    <clipPath id="clip-path">
      <rect id="Rectangle_110" data-name="Rectangle 110" width="70" height="70" transform="translate(475 723)" fill="#ff4367"/>
    </clipPath>
  </defs>
  <g id="Mask_Group_32" data-name="Mask Group 32" transform="translate(-475 -723)" clip-path="url(#clip-path)">
    <g id="mother" transform="translate(475 723.005)">
      <path id="Path_150" data-name="Path 150" d="M44.594,39.24a1.368,1.368,0,1,0-.967-.4A1.379,1.379,0,0,0,44.594,39.24Zm0,0" fill="#ff4367"/>
      <path id="Path_151" data-name="Path 151" d="M69.337,46.213,58.469,31.6V19.781a7.62,7.62,0,0,0-3.358-6.314A7.088,7.088,0,0,0,57.942,7.8V7.094a7.094,7.094,0,1,0-14.188,0V7.8a7.088,7.088,0,0,0,2.832,5.667,7.619,7.619,0,0,0-3.358,6.314v1.677s0,.007,0,.011v4.193l-8.368,3.03a4.105,4.105,0,0,0-2.469,5.224h-.812a1.367,1.367,0,0,0-1.293.924L28.828,39.1h-9.28V23.649a1.367,1.367,0,0,0-1.367-1.367,18.182,18.182,0,0,0-4.071,35.9l-2.182,2.182A5.154,5.154,0,1,0,13.862,62.3l3.668-3.668c.216.007.433.013.651.013s.435-.005.652-.013L22.5,62.3a5.157,5.157,0,1,0,1.933-1.933l-2.182-2.182a18.212,18.212,0,0,0,14.11-17.721A1.367,1.367,0,0,0,35,39.1H31.718l.837-2.447h3.722c.045,0,.089,0,.132-.006a4.1,4.1,0,0,0,1.243-.239l11.073-4.01a4.112,4.112,0,0,0,2.7-3.856V21.469a1.367,1.367,0,1,0-2.734,0v7.069a1.37,1.37,0,0,1-.9,1.285l-11.073,4.01a1.356,1.356,0,0,1-.465.083,1.367,1.367,0,0,1-.466-2.653L45.06,27.9a1.367,1.367,0,0,0,.9-1.285V23.66s0-.007,0-.011V19.781a4.887,4.887,0,1,1,9.773,0V32.056a1.37,1.37,0,0,0,.27.816L67.143,47.845a.62.62,0,0,1-.2.915l-.746.4a42.5,42.5,0,0,1-20.174,5.111h-.06V43.341a1.367,1.367,0,1,0-2.734,0v12.3a1.367,1.367,0,0,0,1.367,1.367h1.427l.167,0v8.654a4.329,4.329,0,0,0,8.658,0v-9.53A45.206,45.206,0,0,0,67.5,51.568l.746-.4a3.353,3.353,0,0,0,1.094-4.951ZM9.387,67.256A2.415,2.415,0,1,1,11.8,64.841,2.418,2.418,0,0,1,9.387,67.256Zm20-2.415a2.415,2.415,0,1,1-2.415-2.415,2.418,2.418,0,0,1,2.415,2.415ZM16.814,25.076V39.1H2.794A15.475,15.475,0,0,1,16.814,25.076ZM18.181,55.91A15.469,15.469,0,0,1,2.794,41.83H6.779a11.4,11.4,0,0,0,5.4,8.423,1.367,1.367,0,1,0,1.431-2.329,8.7,8.7,0,0,1-4.07-6.094h24.03A15.468,15.468,0,0,1,18.181,55.91ZM46.488,7.8V7.094a4.36,4.36,0,0,1,8.721,0V7.8a4.36,4.36,0,0,1-8.721,0Zm5.624,57.862a1.595,1.595,0,0,1-3.189,0V56.914q1.6-.1,3.189-.322Zm0,0" fill="#ff4367"/>
      <path id="Path_152" data-name="Path 152" d="M23.02,20.082a36.692,36.692,0,0,0,3.841,3.082,1.367,1.367,0,0,0,1.538,0,36.691,36.691,0,0,0,3.841-3.082c2.773-2.565,4.121-4.746,4.121-6.666A5.851,5.851,0,0,0,30.73,7.382a5.391,5.391,0,0,0-3.1,1,5.388,5.388,0,0,0-3.1-1A5.851,5.851,0,0,0,18.9,13.416c0,1.92,1.348,4.1,4.121,6.666Zm1.511-9.966A2.715,2.715,0,0,1,26.6,11.1a1.367,1.367,0,0,0,2.068,0,2.717,2.717,0,0,1,2.065-.987,3.122,3.122,0,0,1,2.9,3.3c0,1.81-3.288,4.952-6,6.943-2.709-1.988-6-5.129-6-6.943a3.122,3.122,0,0,1,2.9-3.3Zm0,0" fill="#ff4367"/>
      <path id="Path_153" data-name="Path 153" d="M18.181,49.212h-.116a1.367,1.367,0,1,0-.04,2.734h.156a1.367,1.367,0,1,0,0-2.734Zm0,0" fill="#ff4367"/>
    </g>
  </g>
</svg>
