<svg xmlns="http://www.w3.org/2000/svg" xmlns:xlink="http://www.w3.org/1999/xlink" width="70" height="70" viewBox="0 0 70 70">
  <defs>
    <clipPath id="clip-path">
      <rect id="Rectangle_110" data-name="Rectangle 110" width="70" height="70" transform="translate(475 723)" fill="#ff4367"/>
    </clipPath>
  </defs>
  <g id="Mask_Group_31" data-name="Mask Group 31" transform="translate(-475 -723)" clip-path="url(#clip-path)">
    <g id="portfolio_1_" data-name="portfolio (1)" transform="translate(475 723)">
      <g id="Group_426" data-name="Group 426">
        <g id="Group_425" data-name="Group 425">
          <path id="Path_147" data-name="Path 147" d="M69.6,44.424a1.366,1.366,0,1,0,.4.967A1.376,1.376,0,0,0,69.6,44.424Z" fill="#ff4367"/>
        </g>
      </g>
      <g id="Group_428" data-name="Group 428">
        <g id="Group_427" data-name="Group 427">
          <path id="Path_148" data-name="Path 148" d="M68.633,49.629A1.367,1.367,0,0,0,67.266,51v9.429a4.106,4.106,0,0,1-4.1,4.1H6.836A4.106,4.106,0,0,1,2.744,60.7H20.827a1.367,1.367,0,1,0,0-2.734H2.734V35.772a7.177,7.177,0,0,0,4.479,1.565h4.606v2.241a5.612,5.612,0,0,0,5.605,5.605h.4a5.612,5.612,0,0,0,5.605-5.605V37.337H46.573v2.241a5.612,5.612,0,0,0,5.605,5.605h.4a5.612,5.612,0,0,0,5.605-5.605V37.337h4.606a7.177,7.177,0,0,0,4.479-1.565v4.3a1.367,1.367,0,0,0,2.734,0v-18.2a6.843,6.843,0,0,0-6.836-6.836H50.607V9.846A7.116,7.116,0,0,0,43.5,2.739h-17a7.116,7.116,0,0,0-7.108,7.108v5.188H6.836A6.844,6.844,0,0,0,0,21.871V60.425a6.844,6.844,0,0,0,6.836,6.836H63.164A6.844,6.844,0,0,0,70,60.425V51A1.367,1.367,0,0,0,68.633,49.629ZM20.693,39.578a2.874,2.874,0,0,1-2.871,2.871h-.4a2.874,2.874,0,0,1-2.871-2.871V34.585h6.139Zm34.753,0a2.874,2.874,0,0,1-2.871,2.871h-.4a2.874,2.874,0,0,1-2.871-2.871V34.585h6.139ZM22.127,9.846A4.378,4.378,0,0,1,26.5,5.473h17a4.378,4.378,0,0,1,4.373,4.373v5.188H45.138V9.575a1.367,1.367,0,0,0-1.367-1.367H26.229a1.367,1.367,0,0,0-1.367,1.367v5.46H22.127Zm20.277,1.1v4.093H27.6V10.942ZM2.734,21.871a4.106,4.106,0,0,1,4.1-4.1H63.164a4.106,4.106,0,0,1,4.1,4.1v8.253A4.484,4.484,0,0,1,62.786,34.6H58.181v-.974A1.779,1.779,0,0,0,56.4,31.851H48.35a1.779,1.779,0,0,0-1.777,1.777V34.6H23.427v-.974a1.779,1.779,0,0,0-1.777-1.777H13.6a1.779,1.779,0,0,0-1.777,1.777V34.6H7.214a4.484,4.484,0,0,1-4.479-4.479Z" fill="#ff4367"/>
        </g>
      </g>
      <g id="Group_430" data-name="Group 430">
        <g id="Group_429" data-name="Group 429">
          <path id="Path_149" data-name="Path 149" d="M26.226,57.965H26.2a1.367,1.367,0,1,0,0,2.734h.022a1.367,1.367,0,1,0,0-2.734Z" fill="#ff4367"/>
        </g>
      </g>
    </g>
  </g>
</svg>
