<svg xmlns="http://www.w3.org/2000/svg" xmlns:xlink="http://www.w3.org/1999/xlink" width="50" height="50" viewBox="0 0 50 50">
  <defs>
    <clipPath id="clip-path">
      <rect id="Rectangle_23" data-name="Rectangle 23" width="50" height="50" transform="translate(1265 4821)" fill="#fff"/>
    </clipPath>
  </defs>
  <g id="Mask_Group_11" data-name="Mask Group 11" transform="translate(-1265 -4821)" clip-path="url(#clip-path)">
    <g id="ad" transform="translate(1270.273 4821)">
      <path id="Path_30" data-name="Path 30" d="M8.782,10.584a.976.976,0,1,0,.69-.286A.984.984,0,0,0,8.782,10.584Zm0,0" fill="#fff"/>
      <path id="Path_31" data-name="Path 31" d="M36,10.3H13.379a.977.977,0,1,0,0,1.953H36a1.5,1.5,0,0,1,1.5,1.5V33.789H31.01a.977.977,0,0,0,0,1.953H37.5V36.2A1.5,1.5,0,0,1,36,37.7H7.483a.977.977,0,0,0-.629.23l-4.9,4.127V13.747a1.5,1.5,0,0,1,1.5-1.5H5.567a.977.977,0,0,0,0-1.953H3.449A3.453,3.453,0,0,0,0,13.747v30.4a.977.977,0,0,0,1.606.747l6.234-5.25H36A3.453,3.453,0,0,0,39.453,36.2V13.747A3.453,3.453,0,0,0,36,10.3Zm0,0" fill="#fff"/>
      <path id="Path_32" data-name="Path 32" d="M19.727,6.833a.976.976,0,0,0,.977-.977V.977a.977.977,0,1,0-1.953,0v4.88A.976.976,0,0,0,19.727,6.833Zm0,0" fill="#fff"/>
      <path id="Path_33" data-name="Path 33" d="M27.087,7.229a.973.973,0,0,0,.69-.286l3.414-3.414A.977.977,0,1,0,29.81,2.148L26.4,5.562a.977.977,0,0,0,.69,1.667Zm0,0" fill="#fff"/>
      <path id="Path_34" data-name="Path 34" d="M11.676,6.937a.977.977,0,1,0,1.381-1.381L9.642,2.142A.976.976,0,0,0,8.262,3.523Zm0,0" fill="#fff"/>
      <path id="Path_35" data-name="Path 35" d="M19.727,43.167a.976.976,0,0,0-.977.977v4.88a.977.977,0,0,0,1.953,0v-4.88A.976.976,0,0,0,19.727,43.167Zm0,0" fill="#fff"/>
      <path id="Path_36" data-name="Path 36" d="M27.777,43.057A.977.977,0,1,0,26.4,44.438l3.414,3.414a.977.977,0,1,0,1.381-1.381Zm0,0" fill="#fff"/>
      <path id="Path_37" data-name="Path 37" d="M11.676,43.063,8.262,46.478a.976.976,0,1,0,1.381,1.381l3.414-3.414a.977.977,0,1,0-1.381-1.381Zm0,0" fill="#fff"/>
      <path id="Path_38" data-name="Path 38" d="M28.7,24.38a4.646,4.646,0,0,0-4.641-4.641H21.943a.977.977,0,0,0-.977.977v8.594a.977.977,0,0,0,.977.977h2.119A4.646,4.646,0,0,0,28.7,25.645ZM26.75,25.645a2.691,2.691,0,0,1-2.688,2.688H22.92V21.692h1.142A2.691,2.691,0,0,1,26.75,24.38Zm0,0" fill="#fff"/>
      <path id="Path_39" data-name="Path 39" d="M11.627,26.543,10.8,29a.976.976,0,1,0,1.851.623l.61-1.812h2.713l.61,1.812A.976.976,0,1,0,18.435,29L15.544,20.4a.976.976,0,0,0-1.851,0l-2.065,6.137v0Zm2.991-2.765.7,2.078h-1.4Zm0,0" fill="#fff"/>
      <path id="Path_40" data-name="Path 40" d="M26.462,34.075a.976.976,0,1,0,.69-.286A.984.984,0,0,0,26.462,34.075Zm0,0" fill="#fff"/>
    </g>
  </g>
</svg>
