<svg xmlns="http://www.w3.org/2000/svg" xmlns:xlink="http://www.w3.org/1999/xlink" width="50" height="50" viewBox="0 0 50 50">
  <defs>
    <clipPath id="clip-path">
      <rect id="Rectangle_23" data-name="Rectangle 23" width="50" height="50" transform="translate(1265 4821)" fill="#fff"/>
    </clipPath>
  </defs>
  <g id="Mask_Group_13" data-name="Mask Group 13" transform="translate(-1265 -4821)" clip-path="url(#clip-path)">
    <g id="user" transform="translate(1265 4821)">
      <g id="Group_94" data-name="Group 94">
        <g id="Group_93" data-name="Group 93">
          <path id="Path_45" data-name="Path 45" d="M17.526,9.953a1.051,1.051,0,0,0,1.447-.345c.1-.164.208-.325.318-.478a6.726,6.726,0,0,1,4.018-2.678A1.052,1.052,0,0,0,22.846,4.4a8.8,8.8,0,0,0-5.26,3.5c-.141.2-.277.4-.4.607A1.052,1.052,0,0,0,17.526,9.953Z" fill="#fff"/>
          <path id="Path_46" data-name="Path 46" d="M26.023,6.334l.017,0a1.06,1.06,0,0,0,.135.009,1.052,1.052,0,0,0,.132-2.1l-.052-.006a1.052,1.052,0,0,0-.232,2.091Z" fill="#fff"/>
          <path id="Path_47" data-name="Path 47" d="M46.623,33.5a30.3,30.3,0,0,1-7.187-3.048,1.052,1.052,0,0,0-1.069,0q-.506.3-1.016.573c-1.812-.107-3.1-.592-4-2.378,2.178-1.482,2.96-2.681,3.837-8.008.055-.332.137-.762.233-1.259.524-2.733,1.316-6.863.536-9.474A13.981,13.981,0,0,0,33,2.608a13.575,13.575,0,0,0-16,0,13.983,13.983,0,0,0-4.959,7.3c-.78,2.611.012,6.74.536,9.473.1.5.178.928.233,1.26.882,5.356,1.668,6.54,3.873,8.033-.7,1.361-2.271,2.028-4.6,2.925a16.445,16.445,0,0,0-6.3,3.631C3.641,37.441,2.6,40.566,2.6,44.783a1.052,1.052,0,0,0,1.052,1.052h29.17a12.518,12.518,0,0,0,1.229,1.4C35.8,48.942,37.929,50,38.9,50s3.1-1.058,4.848-2.767a12.006,12.006,0,0,0,3.647-8.77V34.516A1.051,1.051,0,0,0,46.623,33.5ZM14.057,10.51a11.326,11.326,0,0,1,21.886,0,10.413,10.413,0,0,1,.166,3.625c-2.3-.777-3.528-3.893-3.541-3.926a1.052,1.052,0,0,0-1.7-.4c-4.926,4.559-13.549,1.872-13.635,1.844a1.052,1.052,0,0,0-1.224.46,5.769,5.769,0,0,1-2.147,1.691A9.759,9.759,0,0,1,14.057,10.51Zm.829,9.789c-.059-.36-.144-.8-.242-1.315-.161-.839-.36-1.877-.522-2.962a10.014,10.014,0,0,0,3.2-2.158c2.219.573,8.967,1.893,13.9-1.63a7.982,7.982,0,0,0,4.624,4.017c-.156,1-.338,1.954-.488,2.734-.1.512-.183.954-.242,1.314-.874,5.306-1.424,5.657-3.742,7.131-.388.247-.826.525-1.314.855A10.134,10.134,0,0,1,25,29.738a10.136,10.136,0,0,1-5.058-1.452c-.488-.33-.926-.609-1.313-.855l-.1-.063-.007,0C16.294,25.944,15.746,25.525,14.886,20.3ZM25,43.731H4.731c.346-7.187,4.287-8.7,8.1-10.17,2.206-.848,4.475-1.721,5.619-3.74l.339.227.064.04A12.221,12.221,0,0,0,25,31.841h0a12.221,12.221,0,0,0,6.142-1.753l.064-.04c.128-.087.253-.17.375-.251a5.9,5.9,0,0,0,2.707,2.664,29.2,29.2,0,0,1-3.108,1.04,1.052,1.052,0,0,0-.774,1.014v3.946c0,.379.016.747.046,1.1H23.908a1.052,1.052,0,1,0,0,2.1h6.9a11.758,11.758,0,0,0,.746,2.061H25Zm13.9,4.161a9.675,9.675,0,0,1-4.611-3.6,1.053,1.053,0,0,0-.127-.185,9.668,9.668,0,0,1-1.479-3.668c0-.012,0-.024-.006-.035a10.97,10.97,0,0,1-.168-1.936V35.308a30.9,30.9,0,0,0,5.567-2.284l.005,0q.411-.217.819-.448a32.162,32.162,0,0,0,6.391,2.733v3.155h0A9.955,9.955,0,0,1,38.9,47.892Z" fill="#fff"/>
          <path id="Path_48" data-name="Path 48" d="M41.252,37.343l-3.39,3.39-1.309-1.31a1.052,1.052,0,1,0-1.487,1.487l2.053,2.053a1.052,1.052,0,0,0,1.487,0l4.134-4.134a1.052,1.052,0,1,0-1.488-1.487Z" fill="#fff"/>
          <path id="Path_49" data-name="Path 49" d="M20.892,39.567h-.076a1.052,1.052,0,1,0,0,2.1h.076a1.052,1.052,0,1,0,0-2.1Z" fill="#fff"/>
          <path id="Path_50" data-name="Path 50" d="M20.783,20.735a1.3,1.3,0,1,0-1.3-1.3A1.3,1.3,0,0,0,20.783,20.735Z" fill="#fff"/>
          <path id="Path_51" data-name="Path 51" d="M29.218,20.735a1.3,1.3,0,1,0-1.3-1.3A1.3,1.3,0,0,0,29.218,20.735Z" fill="#fff"/>
        </g>
      </g>
    </g>
  </g>
</svg>
