<svg xmlns="http://www.w3.org/2000/svg" xmlns:xlink="http://www.w3.org/1999/xlink" width="70" height="70" viewBox="0 0 70 70">
  <defs>
    <clipPath id="clip-path">
      <rect id="Rectangle_110" data-name="Rectangle 110" width="70" height="70" transform="translate(475 723)" fill="#fff"/>
    </clipPath>
  </defs>
  <g id="Mask_Group_29" data-name="Mask Group 29" transform="translate(-475 -723)" clip-path="url(#clip-path)">
    <g id="diamond" transform="translate(475 723)">
      <g id="Group_410" data-name="Group 410">
        <g id="Group_409" data-name="Group 409">
          <path id="Path_139" data-name="Path 139" d="M69.776,29.473,58.567,12.379a1.367,1.367,0,0,0-1.143-.617H12.63a1.367,1.367,0,0,0-1.142.615L.261,29.419a1.367,1.367,0,0,0,.078,1.7l5.691,6.5a1.367,1.367,0,1,0,2.057-1.8l-3.7-4.23H22.771l9.24,31.547L21.569,51.214a1.367,1.367,0,1,0-2.057,1.8L33.976,69.53a1.367,1.367,0,0,0,2.057,0l15.4-17.586a1.367,1.367,0,0,0-2.057-1.8L38,63.135l9.24-31.546H65.619l-8.5,9.71a1.367,1.367,0,1,0,2.057,1.8L69.662,31.123A1.367,1.367,0,0,0,69.776,29.473Zm-65.87-.617,8.721-13.237,8.681,13.237ZM15.161,14.5H32.473L23.817,27.7ZM35,15.622l8.678,13.233H26.326Zm0,48.007-9.385-32.04H44.389Zm11.21-35.9L37.535,14.5H54.892Zm2.531,1.126,8.678-13.233L66.1,28.855Z" fill="#FF4367"/>
        </g>
      </g>
      <g id="Group_412" data-name="Group 412">
        <g id="Group_411" data-name="Group 411">
          <path id="Path_140" data-name="Path 140" d="M21.491,44.709a6.4,6.4,0,0,1-6.4-6.4,1.367,1.367,0,0,0-2.734,0,6.4,6.4,0,0,1-6.4,6.4,1.367,1.367,0,1,0,0,2.734,6.4,6.4,0,0,1,6.4,6.4,1.367,1.367,0,0,0,2.734,0,6.4,6.4,0,0,1,6.4-6.4,1.367,1.367,0,0,0,0-2.734Zm-7.762,4.329a9.2,9.2,0,0,0-2.961-2.961,9.2,9.2,0,0,0,2.961-2.961,9.2,9.2,0,0,0,2.961,2.961A9.2,9.2,0,0,0,13.728,49.038Z" fill="#FF4367"/>
        </g>
      </g>
      <g id="Group_414" data-name="Group 414">
        <g id="Group_413" data-name="Group 413">
          <path id="Path_141" data-name="Path 141" d="M68.633,5.472a4.106,4.106,0,0,1-4.1-4.1,1.367,1.367,0,1,0-2.734,0,4.106,4.106,0,0,1-4.1,4.1,1.367,1.367,0,0,0,0,2.734,4.106,4.106,0,0,1,4.1,4.1,1.367,1.367,0,1,0,2.734,0,4.106,4.106,0,0,1,4.1-4.1,1.367,1.367,0,0,0,0-2.734ZM63.165,8.21a6.9,6.9,0,0,0-1.371-1.371,6.9,6.9,0,0,0,1.371-1.371,6.9,6.9,0,0,0,1.371,1.371A6.888,6.888,0,0,0,63.165,8.21Z" fill="#FF4367"/>
        </g>
      </g>
      <g id="Group_416" data-name="Group 416">
        <g id="Group_415" data-name="Group 415">
          <path id="Path_142" data-name="Path 142" d="M55.068,45.852a1.366,1.366,0,1,0,.4.966A1.371,1.371,0,0,0,55.068,45.852Z" fill="#FF4367"/>
        </g>
      </g>
    </g>
  </g>
</svg>
