<svg xmlns="http://www.w3.org/2000/svg" xmlns:xlink="http://www.w3.org/1999/xlink" width="70" height="70" viewBox="0 0 70 70">
  <defs>
    <clipPath id="clip-path">
      <rect id="Rectangle_110" data-name="Rectangle 110" width="70" height="70" transform="translate(475 723)" fill="#ff4367"/>
    </clipPath>
  </defs>
  <g id="Mask_Group_30" data-name="Mask Group 30" transform="translate(-475 -723)" clip-path="url(#clip-path)">
    <g id="home_1_" data-name="home (1)" transform="translate(475 723)">
      <g id="Group_418" data-name="Group 418">
        <g id="Group_417" data-name="Group 417">
          <path id="Path_143" data-name="Path 143" d="M69.544,32.958l-8.083-7.841V9.373a1.5,1.5,0,0,0-1.5-1.5h-8.57a1.5,1.5,0,0,0-1.5,1.5v4.514L36.047.463a1.5,1.5,0,0,0-2.094,0L.457,32.958a1.5,1.5,0,0,0,.023,2.18l5.976,5.555a1.5,1.5,0,0,0,2.076-.028l1.9-1.86V68.458a1.5,1.5,0,0,0,1.5,1.5H58.068a1.5,1.5,0,0,0,1.5-1.5V38.806l1.9,1.86a1.5,1.5,0,0,0,2.076.028l5.976-5.555a1.5,1.5,0,0,0,.024-2.18ZM52.891,10.876h5.563V22.2l-5.563-5.4Zm3.673,56.078H13.436v-31.1l3.749-3.676H41.1a1.5,1.5,0,1,0,0-3.007H20.251L35,14.712,54.547,33.879l2.017,1.978v31.1Zm5.984-29.441-26.5-25.981a1.5,1.5,0,0,0-2.105,0L13.869,31.221,10.88,34.152,7.452,37.513l-3.765-3.5L35,3.637,50.34,18.518h0l8.57,8.313h0l7.4,7.181Z" fill="#ff4367"/>
        </g>
      </g>
      <g id="Group_420" data-name="Group 420">
        <g id="Group_419" data-name="Group 419">
          <path id="Path_144" data-name="Path 144" d="M47.54,30.385a1.5,1.5,0,0,0-.086-.281,1.478,1.478,0,0,0-.138-.26,1.432,1.432,0,0,0-.186-.228,1.587,1.587,0,0,0-.228-.186,1.609,1.609,0,0,0-.26-.138,1.517,1.517,0,0,0-.281-.086,1.488,1.488,0,0,0-.588,0,1.51,1.51,0,0,0-.281.086,1.581,1.581,0,0,0-.26.138,1.5,1.5,0,0,0-.228.186,1.43,1.43,0,0,0-.186.228,1.488,1.488,0,0,0-.138.26,1.52,1.52,0,0,0-.086.281,1.481,1.481,0,0,0-.03.293,1.507,1.507,0,0,0,.03.295,1.6,1.6,0,0,0,.086.281,1.519,1.519,0,0,0,.138.259A1.417,1.417,0,0,0,45,31.74a1.482,1.482,0,0,0,.488.326,1.519,1.519,0,0,0,.281.086,1.525,1.525,0,0,0,.588,0,1.508,1.508,0,0,0,.281-.086,1.587,1.587,0,0,0,.26-.138,1.7,1.7,0,0,0,.228-.188,1.444,1.444,0,0,0,.186-.228,1.53,1.53,0,0,0,.138-.259,1.594,1.594,0,0,0,.086-.281,1.505,1.505,0,0,0,.028-.295A1.489,1.489,0,0,0,47.54,30.385Z" fill="#ff4367"/>
        </g>
      </g>
      <g id="Group_422" data-name="Group 422">
        <g id="Group_421" data-name="Group 421">
          <path id="Path_145" data-name="Path 145" d="M48.6,38.24a1.5,1.5,0,0,0-1.157-1.157C46.886,36.963,33.66,34.24,26.895,41c-5.887,5.887-4.589,16.666-4.074,19.733L21.2,62.354a1.5,1.5,0,1,0,2.126,2.126l1.616-1.616a36.935,36.935,0,0,0,5.951.489c4.438,0,10.078-.86,13.782-4.563C51.445,52.025,48.721,38.8,48.6,38.24ZM42.554,56.664c-3.911,3.911-10.967,3.89-14.918,3.511l6.819-6.819a1.5,1.5,0,0,0-2.126-2.126L25.51,58.049c-.379-3.952-.4-11.007,3.511-14.918,4.665-4.665,13.8-3.736,16.812-3.278C46.3,42.861,47.231,51.987,42.554,56.664Z" fill="#ff4367"/>
        </g>
      </g>
      <g id="Group_424" data-name="Group 424">
        <g id="Group_423" data-name="Group 423">
          <path id="Path_146" data-name="Path 146" d="M38.293,48.571a1.542,1.542,0,0,0-.086-.281,1.6,1.6,0,0,0-.138-.26,1.5,1.5,0,0,0-.186-.228,1.435,1.435,0,0,0-.229-.186,1.486,1.486,0,0,0-.26-.138,1.524,1.524,0,0,0-.281-.086,1.48,1.48,0,0,0-.586,0,1.564,1.564,0,0,0-.283.086,1.519,1.519,0,0,0-.259.138,1.432,1.432,0,0,0-.228.186,1.485,1.485,0,0,0-.326.488,1.52,1.52,0,0,0-.086.281,1.49,1.49,0,0,0-.029.293,1.512,1.512,0,0,0,.441,1.063,1.453,1.453,0,0,0,.228.188,1.529,1.529,0,0,0,.259.138,1.572,1.572,0,0,0,.283.086,1.518,1.518,0,0,0,.586,0,1.517,1.517,0,0,0,.281-.086,1.481,1.481,0,0,0,.26-.138,1.443,1.443,0,0,0,.229-.188,1.512,1.512,0,0,0,.441-1.063A1.451,1.451,0,0,0,38.293,48.571Z" fill="#ff4367"/>
        </g>
      </g>
    </g>
  </g>
</svg>
