<svg xmlns="http://www.w3.org/2000/svg" xmlns:xlink="http://www.w3.org/1999/xlink" width="20" height="20" viewBox="0 0 20 20">
  <defs>
    <clipPath id="clip-path">
      <rect id="Rectangle_112" data-name="Rectangle 112" width="20" height="20" transform="translate(395 681)" fill="#ff4367"/>
    </clipPath>
  </defs>
  <g id="Mask_Group_42" data-name="Mask Group 42" transform="translate(-395 -681)" clip-path="url(#clip-path)">
    <g id="wallet" transform="translate(395.307 681)">
      <path id="Path_184" data-name="Path 184" d="M8.211,16.782a.391.391,0,1,0,.284.533.39.39,0,0,0-.284-.533Zm0,0" fill="#ff4367"/>
      <path id="Path_185" data-name="Path 185" d="M19.366,11.141a1.733,1.733,0,0,0-1.713-1.486h-.139V7.22a1.385,1.385,0,0,0-1.383-1.383H15.87l.717-1.027a1.386,1.386,0,0,0-.377-1.953C11.834-.011,12.133.17,11.949.1a1.4,1.4,0,0,0-1.662.508L9.193,2.214l-1.376-.9a1.213,1.213,0,0,0-1.66.331L3.3,5.837H1.648A1.65,1.65,0,0,0,0,7.485c0,.012,0,.024,0,.036s0,.012,0,.018v10.78A1.683,1.683,0,0,0,1.682,20H15.833a1.683,1.683,0,0,0,1.681-1.682v-.935h.079a1.792,1.792,0,0,0,1.79-1.79c0-4.736.009-4.368-.018-4.452Zm-1.713-.7a.95.95,0,0,1,.949.949,1.065,1.065,0,0,1-.14.571,1.025,1.025,0,0,1-.948.465V10.436Zm-7.8-7.8a2.7,2.7,0,0,0,3.526-.706l.849.556a2.566,2.566,0,0,0,.692,3.351l-.652.934H7.038L9.849,2.639Zm1.084-1.6a.608.608,0,0,1,.833-.166l.954.625a1.916,1.916,0,0,1-2.43.488ZM15.781,3.51a.6.6,0,0,1,.165.853l-.583.836a1.786,1.786,0,0,1-.485-2.281ZM6.8,2.082a.428.428,0,0,1,.586-.117l1.365.895L6.093,6.774H3.613ZM1.648,6.618H2.773c-.177.282-.28.352-.289.525a.391.391,0,0,0,.39.412H14.468a.39.39,0,0,0,.32-.167l.537-.77h.806a.6.6,0,0,1,.6.6V8.352H1.648a.867.867,0,0,1,0-1.734Zm15.085,11.7a.9.9,0,0,1-.9.9H1.682a.9.9,0,0,1-.9-.9v-.763H6.572a.391.391,0,0,0,0-.781H.781V8.889a1.655,1.655,0,0,0,.533.211c.407.084.221.006,15.418.034v3.288H15.3a2.481,2.481,0,0,0,0,4.962h1.43ZM18.6,15.593A1.01,1.01,0,0,1,17.593,16.6H15.3a1.7,1.7,0,0,1,0-3.4h2.335a1.743,1.743,0,0,0,.964-.291Zm0,0" fill="#ff4367"/>
      <path id="Path_186" data-name="Path 186" d="M15.441,13.528A1.376,1.376,0,1,0,16.817,14.9,1.378,1.378,0,0,0,15.441,13.528Zm0,1.971a.6.6,0,1,1,.6-.6A.6.6,0,0,1,15.441,15.5Zm0,0" fill="#ff4367"/>
    </g>
  </g>
</svg>
