<svg xmlns="http://www.w3.org/2000/svg" xmlns:xlink="http://www.w3.org/1999/xlink" width="20" height="20" viewBox="0 0 20 20">
  <defs>
    <clipPath id="clip-path">
      <rect id="Rectangle_112" data-name="Rectangle 112" width="20" height="20" transform="translate(395 681)" fill="#ff4367"/>
    </clipPath>
  </defs>
  <g id="Mask_Group_45" data-name="Mask Group 45" transform="translate(-395 -681)" clip-path="url(#clip-path)">
    <g id="dress" transform="translate(395 681)">
      <g id="Group_478" data-name="Group 478">
        <g id="Group_477" data-name="Group 477">
          <path id="Path_193" data-name="Path 193" d="M17.655,17.244a17.574,17.574,0,0,0-1.486-4.613,12.293,12.293,0,0,0-1.936-2.864A8.651,8.651,0,0,0,12.2,8.1a10.039,10.039,0,0,0,1.632-4.754,1.734,1.734,0,0,0-.7-1.367V.391a.391.391,0,0,0-.781,0V1.6a2.318,2.318,0,0,0-.582-.074A2.141,2.141,0,0,0,10,2.411a2.141,2.141,0,0,0-1.773-.887,2.319,2.319,0,0,0-.584.075V.391a.391.391,0,0,0-.781,0V1.98a1.734,1.734,0,0,0-.7,1.365A10.04,10.04,0,0,0,7.79,8.1,8.661,8.661,0,0,0,5.766,9.767a12.3,12.3,0,0,0-1.936,2.864,17.573,17.573,0,0,0-1.486,4.613,1.125,1.125,0,0,0,.718,1.263L4.4,19q.187.069.376.133l.013,0a16.161,16.161,0,0,0,3.489.77.392.392,0,0,0,.057.006A16.152,16.152,0,0,0,15.6,19l1.338-.494A1.125,1.125,0,0,0,17.655,17.244ZM6.937,3.345a.984.984,0,0,1,.494-.818A.386.386,0,0,0,7.469,2.5a1.49,1.49,0,0,1,.752-.2A1.2,1.2,0,0,1,9.5,3.28a.492.492,0,0,0,.981,0,1.2,1.2,0,0,1,1.283-.975,1.492,1.492,0,0,1,.743.192.39.39,0,0,0,.055.034.981.981,0,0,1,.487.814,9.6,9.6,0,0,1-1.626,4.512l-.058.087a3.153,3.153,0,0,1-.938.284,3.482,3.482,0,0,0,.247-.371,2.935,2.935,0,0,0,.276-.639A.391.391,0,1,0,10.205,7a2.44,2.44,0,0,1-.476.858,2.349,2.349,0,0,1-.238.249.389.389,0,0,0-.082.1,3.151,3.151,0,0,1-.789-.26l-.058-.087A9.6,9.6,0,0,1,6.937,3.345Zm9.73,14.429-1.338.494-.19.068a16.571,16.571,0,0,0-1.786-4.614.391.391,0,1,0-.663.413,16.1,16.1,0,0,1,1.7,4.444,15.4,15.4,0,0,1-5.655.587,4.724,4.724,0,0,1,.453-1.852.391.391,0,1,0-.7-.344,5.5,5.5,0,0,0-.53,2.113A15.376,15.376,0,0,1,5.351,18.5c.194-1.106.954-4.8,2.759-6.874a.391.391,0,0,0-.589-.513c-1.891,2.17-2.687,5.827-2.92,7.129l-1.268-.468a.346.346,0,0,1-.22-.388,14.054,14.054,0,0,1,3.194-7.052A7.625,7.625,0,0,1,8.358,8.683a3.937,3.937,0,0,0,3.279,0c.745.384,4.092,2.432,5.249,8.705A.346.346,0,0,1,16.666,17.774Z" fill="#ff4367"/>
        </g>
      </g>
      <g id="Group_480" data-name="Group 480">
        <g id="Group_479" data-name="Group 479">
          <path id="Path_194" data-name="Path 194" d="M12.381,12.453a.4.4,0,0,0-.022-.073.388.388,0,0,0-.036-.068.374.374,0,0,0-.048-.059.394.394,0,0,0-.352-.107.408.408,0,0,0-.073.023.4.4,0,0,0-.067.036.374.374,0,0,0-.059.048.4.4,0,0,0-.049.059.386.386,0,0,0-.036.068.394.394,0,0,0-.022.073.394.394,0,0,0,0,.152.394.394,0,0,0,.023.073.412.412,0,0,0,.036.068.4.4,0,0,0,.108.108.424.424,0,0,0,.067.036.378.378,0,0,0,.073.022.377.377,0,0,0,.152,0,.365.365,0,0,0,.073-.022.415.415,0,0,0,.068-.036.4.4,0,0,0,.059-.049.374.374,0,0,0,.048-.059.388.388,0,0,0,.036-.068.4.4,0,0,0,.022-.073.377.377,0,0,0,0-.152Z" fill="#ff4367"/>
        </g>
      </g>
      <g id="Group_482" data-name="Group 482">
        <g id="Group_481" data-name="Group 481">
          <path id="Path_195" data-name="Path 195" d="M11.357,5.906a.413.413,0,0,0-.022-.073.4.4,0,0,0-.036-.067.374.374,0,0,0-.048-.059A.4.4,0,0,0,10.9,5.6a.413.413,0,0,0-.073.022.391.391,0,0,0-.211.211.413.413,0,0,0-.022.073.391.391,0,0,0-.007.077.387.387,0,0,0,.007.076.394.394,0,0,0,.022.073.4.4,0,0,0,.036.068.42.42,0,0,0,.049.059.374.374,0,0,0,.059.048.4.4,0,0,0,.067.036.417.417,0,0,0,.073.022.392.392,0,0,0,.077.008.384.384,0,0,0,.076-.008.4.4,0,0,0,.073-.022.389.389,0,0,0,.068-.036.372.372,0,0,0,.059-.048A.39.39,0,0,0,11.3,6.2a.4.4,0,0,0,.036-.068.393.393,0,0,0,.022-.073.385.385,0,0,0,.008-.076A.392.392,0,0,0,11.357,5.906Z" fill="#ff4367"/>
        </g>
      </g>
    </g>
  </g>
</svg>
