<svg xmlns="http://www.w3.org/2000/svg" xmlns:xlink="http://www.w3.org/1999/xlink" width="20" height="20" viewBox="0 0 20 20">
  <defs>
    <clipPath id="clip-path">
      <rect id="Rectangle_112" data-name="Rectangle 112" width="20" height="20" transform="translate(395 681)" fill="#ff4367"/>
    </clipPath>
  </defs>
  <g id="Mask_Group_40" data-name="Mask Group 40" transform="translate(-395 -681)" clip-path="url(#clip-path)">
    <g id="laptop" transform="translate(395 681)">
      <g id="Group_463" data-name="Group 463">
        <g id="Group_462" data-name="Group 462">
          <path id="Path_181" data-name="Path 181" d="M19.976,17.687l-1.708-4.7a.982.982,0,0,0-.187-.5.974.974,0,0,0,.187-.575V2.174a.986.986,0,0,0-.986-.982H2.719a.986.986,0,0,0-.986.982v9.737a.978.978,0,0,0,.187.575.978.978,0,0,0-.187.5l-1.708,4.7A.407.407,0,0,0,0,17.826a.986.986,0,0,0,.982.982H19.018A.986.986,0,0,0,20,17.826.407.407,0,0,0,19.976,17.687ZM2.547,2.174a.171.171,0,0,1,.171-.167H17.286a.171.171,0,0,1,.171.167v9.737a.171.171,0,0,1-.171.171H2.719a.171.171,0,0,1-.171-.171ZM2.523,13.2a.408.408,0,0,0,.024-.139.171.171,0,0,1,.171-.171H17.286a.171.171,0,0,1,.171.171.408.408,0,0,0,.024.139l.562,1.549H1.96ZM11.861,18H8.143V16.851h3.717V18Zm7.157,0H12.676V16.774a.778.778,0,0,0-.815-.73H8.143a.778.778,0,0,0-.815.73V18H.986a.171.171,0,0,1-.163-.118l.84-2.307H18.341l.84,2.307A.171.171,0,0,1,19.018,18Z" fill="#ff4367"/>
        </g>
      </g>
      <g id="Group_465" data-name="Group 465">
        <g id="Group_464" data-name="Group 464">
          <path id="Path_182" data-name="Path 182" d="M15.708,2.916H4.3a.815.815,0,0,0-.815.815v6.623a.815.815,0,0,0,.815.815H15.708a.815.815,0,0,0,.815-.815V3.731A.815.815,0,0,0,15.708,2.916Zm0,7.438H4.3V3.731H15.708Z" fill="#ff4367"/>
        </g>
      </g>
    </g>
  </g>
</svg>
