<svg xmlns="http://www.w3.org/2000/svg" xmlns:xlink="http://www.w3.org/1999/xlink" width="20" height="20" viewBox="0 0 20 20">
  <defs>
    <clipPath id="clip-path">
      <rect id="Rectangle_112" data-name="Rectangle 112" width="20" height="20" transform="translate(395 681)" fill="#ff4367"/>
    </clipPath>
  </defs>
  <g id="Mask_Group_48" data-name="Mask Group 48" transform="translate(-395 -681)" clip-path="url(#clip-path)">
    <g id="green" transform="translate(395 681)">
      <g id="Group_509" data-name="Group 509">
        <g id="Group_508" data-name="Group 508">
          <path id="Path_209" data-name="Path 209" d="M16.7,2.106a.277.277,0,0,0-.193-.077h-.29a.224.224,0,0,0-.193.077,12.174,12.174,0,0,0-1.932,2.3L9.777.5A.277.277,0,0,0,9.584.425c-.116,0-.116,0-4.85,4.464L.1,9.275A.3.3,0,0,0,.019,9.6.291.291,0,0,0,.289,9.8h2.2v9.469a.305.305,0,0,0,.309.309H16.347a.305.305,0,0,0,.309-.309V13.759l1.507-1.372A5.244,5.244,0,0,0,20,8.406C19.961,5.1,16.83,2.241,16.7,2.106Zm-.657,16.87H3.091V9.488a.305.305,0,0,0-.309-.309H1.023c1.8-1.681,7.4-7,8.541-8.058l4.174,3.826A7.061,7.061,0,0,0,12.7,8.425a5.244,5.244,0,0,0,1.836,3.981l1.507,1.372Zm1.72-7.034-1.1,1V7.981a.309.309,0,1,0-.618,0v4.966l-1.1-1a4.658,4.658,0,0,1-1.643-3.536c.019-2.744,2.531-5.295,3.015-5.759h.058c.483.464,3,3.015,3.015,5.778A4.6,4.6,0,0,1,17.758,11.942Z" fill="#ff4367"/>
        </g>
      </g>
      <g id="Group_511" data-name="Group 511">
        <g id="Group_510" data-name="Group 510">
          <path id="Path_210" data-name="Path 210" d="M15.149,14.106c0-.019-.019-.019-.019-.039a.067.067,0,0,0-.019-.039l-.908-1a3.393,3.393,0,0,0-2.512-1.179c-2.126.019-3.942,2.01-4.019,2.087a.277.277,0,0,0-.077.193v.193a.224.224,0,0,0,.077.193c.077.077,1.894,2.087,4,2.087a3.325,3.325,0,0,0,2.512-1.179l.908-.986c.019-.019.019-.039.039-.039,0-.019.019-.019.019-.039a.377.377,0,0,0,.019-.135A.245.245,0,0,0,15.149,14.106Zm-3.768.444H14.2l-.444.464A2.77,2.77,0,0,1,11.69,16a5.626,5.626,0,0,1-3.459-1.778,5.626,5.626,0,0,1,3.459-1.778,2.74,2.74,0,0,1,2.068.986l.444.5H11.381a.309.309,0,1,0,0,.618Z" fill="#ff4367"/>
        </g>
      </g>
    </g>
  </g>
</svg>
