<svg xmlns="http://www.w3.org/2000/svg" xmlns:xlink="http://www.w3.org/1999/xlink" width="20" height="20" viewBox="0 0 20 20">
  <defs>
    <clipPath id="clip-path">
      <rect id="Rectangle_112" data-name="Rectangle 112" width="20" height="20" transform="translate(395 681)" fill="#ff4367"/>
    </clipPath>
  </defs>
  <g id="Mask_Group_43" data-name="Mask Group 43" transform="translate(-395 -681)" clip-path="url(#clip-path)">
    <g id="diamond" transform="translate(395 681)">
      <g id="Group_468" data-name="Group 468">
        <g id="Group_467" data-name="Group 467">
          <path id="Path_187" data-name="Path 187" d="M19.936,8.421l-3.2-4.884a.391.391,0,0,0-.327-.176H3.609a.391.391,0,0,0-.326.176L.074,8.406A.391.391,0,0,0,.1,8.892l1.626,1.857a.391.391,0,1,0,.588-.515L1.252,9.026H6.506l2.64,9.014L6.163,14.633a.391.391,0,1,0-.588.515l4.132,4.718a.39.39,0,0,0,.588,0l4.4-5.025a.391.391,0,1,0-.588-.515l-3.25,3.712L13.5,9.025h5.252L16.319,11.8a.391.391,0,1,0,.588.515l3-3.422A.391.391,0,0,0,19.936,8.421ZM1.116,8.244,3.608,4.462l2.48,3.782Zm3.216-4.1H9.278L6.8,7.913ZM10,4.463l2.479,3.781H7.522ZM10,18.18,7.32,9.026h5.363ZM13.2,7.923,10.724,4.142h4.959Zm.723.322,2.48-3.781,2.479,3.781Z" fill="#ff4367"/>
        </g>
      </g>
      <g id="Group_470" data-name="Group 470">
        <g id="Group_469" data-name="Group 469">
          <path id="Path_188" data-name="Path 188" d="M6.14,12.774a1.829,1.829,0,0,1-1.827-1.827.391.391,0,0,0-.781,0A1.829,1.829,0,0,1,1.7,12.774a.391.391,0,1,0,0,.781,1.829,1.829,0,0,1,1.827,1.827.391.391,0,0,0,.781,0A1.829,1.829,0,0,1,6.14,13.555a.391.391,0,0,0,0-.781ZM3.922,14.011a2.629,2.629,0,0,0-.846-.846,2.629,2.629,0,0,0,.846-.846,2.629,2.629,0,0,0,.846.846A2.629,2.629,0,0,0,3.922,14.011Z" fill="#ff4367"/>
        </g>
      </g>
      <g id="Group_472" data-name="Group 472">
        <g id="Group_471" data-name="Group 471">
          <path id="Path_189" data-name="Path 189" d="M19.609,1.563A1.173,1.173,0,0,1,18.438.392a.391.391,0,1,0-.781,0,1.173,1.173,0,0,1-1.172,1.172.391.391,0,1,0,0,.781,1.173,1.173,0,0,1,1.172,1.172.391.391,0,1,0,.781,0,1.173,1.173,0,0,1,1.172-1.172.391.391,0,0,0,0-.781Zm-1.562.782a1.97,1.97,0,0,0-.392-.392,1.97,1.97,0,0,0,.392-.392,1.97,1.97,0,0,0,.392.392A1.968,1.968,0,0,0,18.047,2.346Z" fill="#ff4367"/>
        </g>
      </g>
      <g id="Group_474" data-name="Group 474">
        <g id="Group_473" data-name="Group 473">
          <path id="Path_190" data-name="Path 190" d="M15.734,13.1a.39.39,0,1,0,.114.276A.392.392,0,0,0,15.734,13.1Z" fill="#ff4367"/>
        </g>
      </g>
    </g>
  </g>
</svg>
