<svg xmlns="http://www.w3.org/2000/svg" xmlns:xlink="http://www.w3.org/1999/xlink" width="20" height="20" viewBox="0 0 20 20">
  <defs>
    <clipPath id="clip-path">
      <rect id="Rectangle_112" data-name="Rectangle 112" width="20" height="20" transform="translate(395 761)" fill="#ff4367"/>
    </clipPath>
  </defs>
  <g id="Mask_Group_47" data-name="Mask Group 47" transform="translate(-395 -761)" clip-path="url(#clip-path)">
    <g id="phone" transform="translate(395 761)">
      <g id="Group_485" data-name="Group 485">
        <g id="Group_484" data-name="Group 484">
          <path id="Path_197" data-name="Path 197" d="M17.459,0H2.581A2.135,2.135,0,0,0,.264,2.276V17.724A2.124,2.124,0,0,0,2.54,20H17.459a2.124,2.124,0,0,0,2.276-2.276V2.276A2.087,2.087,0,0,0,17.459,0Zm1.5,17.724A1.3,1.3,0,0,1,17.5,19.187H2.581a1.313,1.313,0,0,1-1.463-1.463V2.276A1.313,1.313,0,0,1,2.581.813H17.5a1.313,1.313,0,0,1,1.463,1.463Z" fill="#ff4367"/>
        </g>
      </g>
      <g id="Group_487" data-name="Group 487">
        <g id="Group_486" data-name="Group 486">
          <path id="Path_198" data-name="Path 198" d="M5.142,1.667A2.637,2.637,0,0,0,2.5,4.309V15.488a2.642,2.642,0,0,0,5.285,0V4.35A2.672,2.672,0,0,0,5.142,1.667ZM6.971,15.488a1.829,1.829,0,0,1-3.659,0V4.35a1.829,1.829,0,0,1,3.659,0Z" fill="#ff4367"/>
        </g>
      </g>
      <g id="Group_489" data-name="Group 489">
        <g id="Group_488" data-name="Group 488">
          <path id="Path_199" data-name="Path 199" d="M10.508,7.2A1.382,1.382,0,1,0,11.89,8.577,1.425,1.425,0,0,0,10.508,7.2Zm0,1.992a.569.569,0,1,1,.569-.569A.581.581,0,0,1,10.508,9.187Z" fill="#ff4367"/>
        </g>
      </g>
      <g id="Group_491" data-name="Group 491">
        <g id="Group_490" data-name="Group 490">
          <path id="Path_200" data-name="Path 200" d="M13.6,7.2a1.382,1.382,0,1,0,1.382,1.382A1.4,1.4,0,0,0,13.6,7.2Zm0,1.992a.569.569,0,1,1,.569-.569A.556.556,0,0,1,13.6,9.187Z" fill="#ff4367"/>
        </g>
      </g>
      <g id="Group_493" data-name="Group 493">
        <g id="Group_492" data-name="Group 492">
          <path id="Path_201" data-name="Path 201" d="M16.686,7.2a1.382,1.382,0,1,0,1.382,1.382A1.371,1.371,0,0,0,16.686,7.2Zm0,1.992a.569.569,0,1,1,.569-.569A.556.556,0,0,1,16.686,9.187Z" fill="#ff4367"/>
        </g>
      </g>
      <g id="Group_495" data-name="Group 495">
        <g id="Group_494" data-name="Group 494">
          <path id="Path_202" data-name="Path 202" d="M10.508,10.447a1.382,1.382,0,1,0,1.382,1.382A1.4,1.4,0,0,0,10.508,10.447Zm0,1.951a.569.569,0,1,1,.569-.569A.581.581,0,0,1,10.508,12.4Z" fill="#ff4367"/>
        </g>
      </g>
      <g id="Group_497" data-name="Group 497">
        <g id="Group_496" data-name="Group 496">
          <path id="Path_203" data-name="Path 203" d="M13.6,10.447a1.382,1.382,0,1,0,1.382,1.382A1.371,1.371,0,0,0,13.6,10.447Zm0,1.951a.569.569,0,1,1,.569-.569A.556.556,0,0,1,13.6,12.4Z" fill="#ff4367"/>
        </g>
      </g>
      <g id="Group_499" data-name="Group 499">
        <g id="Group_498" data-name="Group 498">
          <path id="Path_204" data-name="Path 204" d="M16.686,10.447a1.382,1.382,0,1,0,1.382,1.382A1.346,1.346,0,0,0,16.686,10.447Zm0,1.951a.569.569,0,1,1,.569-.569A.556.556,0,0,1,16.686,12.4Z" fill="#ff4367"/>
        </g>
      </g>
      <g id="Group_501" data-name="Group 501">
        <g id="Group_500" data-name="Group 500">
          <path id="Path_205" data-name="Path 205" d="M10.508,13.659a1.382,1.382,0,1,0,1.382,1.382A1.4,1.4,0,0,0,10.508,13.659Zm0,1.951a.569.569,0,1,1,.569-.569A.581.581,0,0,1,10.508,15.61Z" fill="#ff4367"/>
        </g>
      </g>
      <g id="Group_503" data-name="Group 503">
        <g id="Group_502" data-name="Group 502">
          <path id="Path_206" data-name="Path 206" d="M13.6,13.659a1.382,1.382,0,1,0,1.382,1.382A1.371,1.371,0,0,0,13.6,13.659Zm0,1.951a.569.569,0,1,1,.569-.569A.556.556,0,0,1,13.6,15.61Z" fill="#ff4367"/>
        </g>
      </g>
      <g id="Group_505" data-name="Group 505">
        <g id="Group_504" data-name="Group 504">
          <path id="Path_207" data-name="Path 207" d="M16.686,13.659a1.382,1.382,0,1,0,1.382,1.382A1.346,1.346,0,0,0,16.686,13.659Zm0,1.951a.569.569,0,1,1,.569-.569A.556.556,0,0,1,16.686,15.61Z" fill="#ff4367"/>
        </g>
      </g>
      <g id="Group_507" data-name="Group 507">
        <g id="Group_506" data-name="Group 506">
          <path id="Path_208" data-name="Path 208" d="M16.321,2.561H10.914a.815.815,0,0,0-.813.813V5.081a.815.815,0,0,0,.813.813h5.407a.815.815,0,0,0,.813-.813V3.374A.815.815,0,0,0,16.321,2.561Zm0,2.48H10.914V3.333h5.407Z" fill="#ff4367"/>
        </g>
      </g>
    </g>
  </g>
</svg>
