<svg xmlns="http://www.w3.org/2000/svg" xmlns:xlink="http://www.w3.org/1999/xlink" width="50" height="50" viewBox="0 0 50 50">
  <defs>
    <clipPath id="clip-path">
      <rect id="Rectangle_23" data-name="Rectangle 23" width="50" height="50" transform="translate(1265 4821)" fill="#fff"/>
    </clipPath>
  </defs>
  <g id="Mask_Group_12" data-name="Mask Group 12" transform="translate(-1265 -4821)" clip-path="url(#clip-path)">
    <g id="man" transform="translate(1265 4821)">
      <g id="Group_86" data-name="Group 86">
        <g id="Group_85" data-name="Group 85">
          <path id="Path_41" data-name="Path 41" d="M42.9,34.066l-.07-.071a.977.977,0,1,0-1.384,1.378l.058.059a.977.977,0,1,0,1.4-1.366Z" fill="#fff"/>
        </g>
      </g>
      <g id="Group_88" data-name="Group 88">
        <g id="Group_87" data-name="Group 87">
          <path id="Path_42" data-name="Path 42" d="M49.023,48.047H46.289V42.371a11.92,11.92,0,0,0-1.278-5.361.976.976,0,1,0-1.742.882,9.96,9.96,0,0,1,1.067,4.478v5.675H5.664V42.365a9.982,9.982,0,0,1,7.8-9.691l3.339-.733a5.626,5.626,0,0,0,1.761-.716,9.856,9.856,0,0,0,12.86.017,5.624,5.624,0,0,0,1.733.7l3.38.739a9.928,9.928,0,0,1,2.394.856.977.977,0,0,0,.888-1.739,11.885,11.885,0,0,0-2.865-1.024l-3.38-.739a3.77,3.77,0,0,1-2.948-3.662v-.377a8.584,8.584,0,0,0,4.218-6.014H35.3a2.79,2.79,0,0,0,2.787-2.787V15.344A2.79,2.79,0,0,0,35.3,12.557h-.338v-4A8.571,8.571,0,0,0,26.4,0H23.6a8.571,8.571,0,0,0-8.561,8.561v4H14.7a2.79,2.79,0,0,0-2.787,2.787v1.847A2.79,2.79,0,0,0,14.7,19.979h.458a8.583,8.583,0,0,0,4.167,5.985v.409a3.771,3.771,0,0,1-2.945,3.661l-3.339.733a11.875,11.875,0,0,0-9.331,11.6v5.682H.977A.977.977,0,0,0,.977,50H49.023a.977.977,0,0,0,0-1.953ZM34.961,14.51H35.3a.835.835,0,0,1,.834.834v1.847a.835.835,0,0,1-.834.834h-.338ZM15.039,18.026H14.7a.835.835,0,0,1-.834-.834V15.344a.835.835,0,0,1,.834-.834h.338ZM25,31.667a7.84,7.84,0,0,1-4.965-1.755,5.706,5.706,0,0,0,1.228-3.126,8.545,8.545,0,0,0,2.338.324h2.8a8.542,8.542,0,0,0,2.287-.311,5.709,5.709,0,0,0,1.247,3.137A7.84,7.84,0,0,1,25,31.667ZM16.992,8.561A6.616,6.616,0,0,1,23.6,1.953h2.8A6.619,6.619,0,0,1,32.932,7.56a.975.975,0,0,0-.214.161,16.4,16.4,0,0,1-11.675,4.836H16.992Zm0,9.987V14.51h4.051A18.374,18.374,0,0,0,28.109,13.1a18.361,18.361,0,0,0,4.9-3v8.44A6.615,6.615,0,0,1,26.4,25.156H23.6A6.616,6.616,0,0,1,16.992,18.548Z" fill="#fff"/>
        </g>
      </g>
      <g id="Group_90" data-name="Group 90">
        <g id="Group_89" data-name="Group 89">
          <path id="Path_43" data-name="Path 43" d="M12.216,36.3a.977.977,0,0,0-1.372-.16,7.9,7.9,0,0,0-3.014,6.228.977.977,0,1,0,1.953,0,5.956,5.956,0,0,1,2.273-4.7A.977.977,0,0,0,12.216,36.3Z" fill="#fff"/>
        </g>
      </g>
      <g id="Group_92" data-name="Group 92">
        <g id="Group_91" data-name="Group 91">
          <path id="Path_44" data-name="Path 44" d="M15.23,35.354a.977.977,0,0,0-1.164-.743l-.045.01a.977.977,0,1,0,.424,1.907l.043-.009A.976.976,0,0,0,15.23,35.354Z" fill="#fff"/>
        </g>
      </g>
    </g>
  </g>
</svg>
