<svg xmlns="http://www.w3.org/2000/svg" xmlns:xlink="http://www.w3.org/1999/xlink" width="80" height="80" viewBox="0 0 80 80">
  <defs>
    <clipPath id="clip-path">
      <rect id="Rectangle_44" data-name="Rectangle 44" width="80" height="80" transform="translate(520 7263)" fill="#675cff"/>
    </clipPath>
  </defs>
  <g id="Mask_Group_20" data-name="Mask Group 20" transform="translate(-520 -7263)" clip-path="url(#clip-path)">
    <g id="think" transform="translate(520 7263)">
      <g id="Group_163" data-name="Group 163">
        <g id="Group_162" data-name="Group 162">
          <path id="Path_83" data-name="Path 83" d="M65.982,30.553a1.563,1.563,0,0,0-2.21,2.21l.073.071a1.563,1.563,0,0,0,2.137-2.281Z" fill="#675cff"/>
        </g>
      </g>
      <g id="Group_165" data-name="Group 165">
        <g id="Group_164" data-name="Group 164">
          <path id="Path_84" data-name="Path 84" d="M62.807,27.987a24.462,24.462,0,0,0-2.729-1.61,20.956,20.956,0,0,0-15.891-1.515,1.562,1.562,0,1,0,.927,2.984,17.888,17.888,0,0,1,13.559,1.322,21.758,21.758,0,0,1,2.379,1.4,1.562,1.562,0,1,0,1.755-2.585Z" fill="#675cff"/>
        </g>
      </g>
      <g id="Group_167" data-name="Group 167">
        <g id="Group_166" data-name="Group 166">
          <path id="Path_85" data-name="Path 85" d="M77.023,48.207A20.1,20.1,0,0,1,75.3,43.9c1.827-4.5,1.161-9.488-1.883-14.047-4.68-7.011-14.272-12.1-22.808-12.1a27.96,27.96,0,0,0-12.881,3.13A13.375,13.375,0,1,0,17.595,34.7,2.611,2.611,0,0,1,19.1,37.026v9.143a3.167,3.167,0,0,0,3.163,3.164H22.8a27.828,27.828,0,0,0,9.423,17.62c.05.154.194.878-.427,3.037-.484,1.682-1.226,3.55-1.88,5.2-.438,1.1-.817,2.056-1.045,2.776A1.563,1.563,0,0,0,30.358,80h22.3a2.536,2.536,0,0,0,2.373-1.891,15.274,15.274,0,0,0,.647-2.365c.186-.844.621-2.822,1.054-3.061a.317.317,0,0,1,.087.005,1.536,1.536,0,0,0,.243.019c2.336,0,4.244.106,5.928.2,4.939.274,7.92.44,10.535-3.327,1.33-1.916,1.179-4.71,1.02-7.668a27.906,27.906,0,0,1-.016-4.407,13.632,13.632,0,0,1,1.384-1.031c1.473-1.012,2.864-1.967,2.864-3.419C78.779,51.949,78.112,50.492,77.023,48.207ZM19.228,32.04a10.251,10.251,0,1,1,10.694,0,5.686,5.686,0,0,0-2.739,3.347H21.967A5.689,5.689,0,0,0,19.228,32.04Zm7.693,6.473V40.8H22.229V38.513Zm-4.654,7.695a.045.045,0,0,1-.038-.039V43.923h4.692v2.246a.045.045,0,0,1-.039.039ZM74.146,53.9c-1.345.924-2.506,1.721-2.678,2.928a27.816,27.816,0,0,0-.041,5.254c.118,2.195.252,4.683-.466,5.718-1.555,2.24-2.9,2.261-7.8,1.989-1.615-.09-3.62-.2-6-.2a3.331,3.331,0,0,0-3.487,2.067,14.517,14.517,0,0,0-1.053,3.423,16.6,16.6,0,0,1-.464,1.8H32.608l.212-.533c2.251-5.668,3.677-9.824,1.507-11.7a24.727,24.727,0,0,1-8.374-15.308h.93a3.167,3.167,0,0,0,3.164-3.164v-9.14A2.612,2.612,0,0,1,31.555,34.7a13.284,13.284,0,0,0,6.353-10.343,24.825,24.825,0,0,1,12.7-3.481c7.445,0,16.133,4.6,20.209,10.71,1.747,2.617,3.434,6.688,1.552,11.221-.613,1.476.3,3.523,1.83,6.741a28.2,28.2,0,0,1,1.406,3.254A14.764,14.764,0,0,1,74.146,53.9Z" fill="#675cff"/>
        </g>
      </g>
      <g id="Group_169" data-name="Group 169">
        <g id="Group_168" data-name="Group 168">
          <path id="Path_86" data-name="Path 86" d="M32.239,21.084a6.256,6.256,0,0,0-3.317-3.962A1.563,1.563,0,0,0,27.489,19.9a3.132,3.132,0,0,1,1.733,2,4.737,4.737,0,0,1-.434,3.228,1.562,1.562,0,1,0,2.635,1.68A7.832,7.832,0,0,0,32.239,21.084Z" fill="#675cff"/>
        </g>
      </g>
      <g id="Group_171" data-name="Group 171">
        <g id="Group_170" data-name="Group 170">
          <path id="Path_87" data-name="Path 87" d="M24.575,0a1.563,1.563,0,0,0-1.562,1.562V6.017a1.562,1.562,0,0,0,3.125,0V1.562A1.563,1.563,0,0,0,24.575,0Z" fill="#675cff"/>
        </g>
      </g>
      <g id="Group_173" data-name="Group 173">
        <g id="Group_172" data-name="Group 172">
          <path id="Path_88" data-name="Path 88" d="M7.238,21.791H2.784a1.562,1.562,0,0,0,0,3.125H7.238a1.562,1.562,0,0,0,0-3.125Z" fill="#675cff"/>
        </g>
      </g>
      <g id="Group_175" data-name="Group 175">
        <g id="Group_174" data-name="Group 174">
          <path id="Path_89" data-name="Path 89" d="M17.259,7.557,15.032,3.7a1.562,1.562,0,1,0-2.706,1.562l2.227,3.856a1.562,1.562,0,0,0,2.706-1.562Z" fill="#675cff"/>
        </g>
      </g>
      <g id="Group_177" data-name="Group 177">
        <g id="Group_176" data-name="Group 176">
          <path id="Path_90" data-name="Path 90" d="M10.34,13.332,6.484,11.105a1.562,1.562,0,0,0-1.562,2.706l3.856,2.227a1.562,1.562,0,0,0,1.562-2.706Z" fill="#675cff"/>
        </g>
      </g>
      <g id="Group_179" data-name="Group 179">
        <g id="Group_178" data-name="Group 178">
          <path id="Path_91" data-name="Path 91" d="M44.8,11.677a1.562,1.562,0,0,0-2.134-.572L38.81,13.332a1.562,1.562,0,1,0,1.562,2.706l3.856-2.227A1.562,1.562,0,0,0,44.8,11.677Z" fill="#675cff"/>
        </g>
      </g>
      <g id="Group_181" data-name="Group 181">
        <g id="Group_180" data-name="Group 180">
          <path id="Path_92" data-name="Path 92" d="M10.913,31.242a1.563,1.563,0,0,0-2.134-.572L4.922,32.9A1.563,1.563,0,1,0,6.484,35.6l3.857-2.227A1.562,1.562,0,0,0,10.913,31.242Z" fill="#675cff"/>
        </g>
      </g>
      <g id="Group_183" data-name="Group 183">
        <g id="Group_182" data-name="Group 182">
          <path id="Path_93" data-name="Path 93" d="M16.366,37.573a1.563,1.563,0,0,0-2.134.572l-1.905,3.3a1.563,1.563,0,1,0,2.706,1.562l1.905-3.3A1.562,1.562,0,0,0,16.366,37.573Z" fill="#675cff"/>
        </g>
      </g>
      <g id="Group_185" data-name="Group 185">
        <g id="Group_184" data-name="Group 184">
          <path id="Path_94" data-name="Path 94" d="M36.252,3.129a1.562,1.562,0,0,0-2.134.572L31.891,7.557A1.562,1.562,0,1,0,34.6,9.119l2.227-3.856A1.562,1.562,0,0,0,36.252,3.129Z" fill="#675cff"/>
        </g>
      </g>
    </g>
  </g>
</svg>
